<?xml version="1.0" encoding="utf-8"?>
<!-- Generator: Adobe Illustrator 26.3.1, SVG Export Plug-In . SVG Version: 6.00 Build 0)  -->
<svg version="1.1" id="Layer_1" xmlns="http://www.w3.org/2000/svg" xmlns:xlink="http://www.w3.org/1999/xlink" x="0px" y="0px"
	 viewBox="0 0 280.76 58.16" style="enable-background:new 0 0 280.76 58.16;" xml:space="preserve">
<style type="text/css">
	.st0{opacity:0.09;}
	.st1{fill:#767467;}
	.st2{fill:#8C734B;}
	.st3{fill:#34170A;}
	.st4{fill:none;stroke:#A38D6C;stroke-width:1.6835;stroke-miterlimit:10;}
	.st5{fill:url(#SVGID_00000179630148160739835690000009662106929829533344_);}
	.st6{fill:url(#SVGID_00000077323864194323822220000011955014327483552414_);}
	.st7{fill:url(#SVGID_00000016070442280395967140000006813013332245790123_);}
	.st8{fill:url(#SVGID_00000039830810619313934240000002047974378325049515_);}
	.st9{fill:url(#SVGID_00000006671038414587221660000006725373267128116107_);}
	.st10{fill:url(#SVGID_00000046323505865565260080000009121239437841253288_);}
	.st11{fill:url(#SVGID_00000112611836706676974670000000164790712394193082_);}
	.st12{fill:url(#SVGID_00000160879474610296984380000015501518437339444654_);}
	.st13{fill:url(#SVGID_00000002377863294281046980000013395030229919740571_);}
	.st14{fill:url(#SVGID_00000017508302207955725540000007196467629754031521_);}
	.st15{fill:url(#SVGID_00000004533166671233739120000010034479915144426634_);}
	.st16{fill:url(#SVGID_00000049189260996448094080000008865073279403094966_);}
	.st17{fill:#231F20;}
	.st18{fill:url(#SVGID_00000145038963448086826760000007805650218227035034_);}
	.st19{fill:url(#SVGID_00000066509656169010325780000016885899844607324587_);}
	.st20{fill:url(#SVGID_00000052796946941190765070000011858413224085579930_);}
	.st21{fill:url(#SVGID_00000129886559734882097510000000810196800010772371_);}
	.st22{fill:url(#SVGID_00000077296749531008559330000005419184195772692381_);}
	.st23{fill:url(#SVGID_00000130611026046506166620000001395907052184300721_);}
	.st24{fill:url(#SVGID_00000115485023751179530280000011799449968206426246_);}
	.st25{fill:url(#SVGID_00000109712356732883477210000001013384550649809056_);}
	.st26{fill:url(#SVGID_00000121270087814181333480000002076886273870885024_);}
	.st27{fill:url(#SVGID_00000013911023229879986930000011686763674538566025_);}
	.st28{fill:url(#SVGID_00000083048382714058537810000003318317541916173472_);}
	.st29{fill:url(#SVGID_00000181071633221734097020000013694593815882178960_);}
	.st30{fill:none;stroke:#A38D6C;stroke-width:0.5;stroke-miterlimit:10;}
	.st31{fill:#A09480;}
	.st32{fill:#FFFFFF;}
	.st33{fill:#E0DEDC;}
	.st34{clip-path:url(#SVGID_00000099636512051811406510000005516815282942219957_);fill:#806E48;}
	.st35{clip-path:url(#SVGID_00000160904970534975188590000005941364768988643464_);fill:#806E48;}
	.st36{clip-path:url(#SVGID_00000110430850351904052140000000009072005378429082_);fill:#806E48;}
	.st37{fill:#808082;}
	.st38{clip-path:url(#SVGID_00000175283275809895390000000000314993425714489001_);}
	.st39{clip-path:url(#SVGID_00000047758642798222561390000001684878246021046179_);}
	.st40{clip-path:url(#SVGID_00000153701969820251460030000016742552880879305134_);}
	.st41{clip-path:url(#SVGID_00000065774132378807853520000013955282184222727823_);fill:#D9001A;}
	
		.st42{clip-path:url(#SVGID_00000047758642798222561390000001684878246021046179_);fill:none;stroke:#FFFFFF;stroke-width:1.099;stroke-miterlimit:10;}
	.st43{clip-path:url(#SVGID_00000142146584467312313630000006195198752953356200_);}
	.st44{clip-path:url(#SVGID_00000095313222595972792480000010047982669418906776_);fill:#D9001A;}
	.st45{fill:none;stroke:#FFFFFF;stroke-width:1.099;stroke-miterlimit:10;}
	.st46{clip-path:url(#SVGID_00000046328294210906738960000016279761773592597902_);}
	.st47{clip-path:url(#SVGID_00000153666774950207590940000013565025449786797759_);fill:#D9001A;}
	.st48{clip-path:url(#SVGID_00000021104943434969278000000014791829245921867706_);}
	.st49{clip-path:url(#SVGID_00000161628305274528450470000008560039972528732294_);fill:#D9001A;}
	.st50{clip-path:url(#SVGID_00000147188301120892667100000012500442966351442071_);}
	.st51{clip-path:url(#SVGID_00000049910617600273004290000014914159540374622617_);fill:#D9001A;}
	.st52{clip-path:url(#SVGID_00000178906515300864157120000007836067822706949515_);}
	.st53{clip-path:url(#SVGID_00000129899171034911166600000014658993336287890097_);fill:#D9001A;}
	.st54{clip-path:url(#SVGID_00000109749682143340181720000003553091182544262826_);}
	.st55{clip-path:url(#SVGID_00000151521280003634304150000013018412506848385438_);fill:#0B72AC;}
	.st56{clip-path:url(#SVGID_00000005986180474921493940000009897567276910123941_);}
	.st57{clip-path:url(#SVGID_00000106837672492271407620000007819383477840993467_);fill:#0B72AC;}
	.st58{clip-path:url(#SVGID_00000142857745832014904330000015603282998970930048_);}
	.st59{clip-path:url(#SVGID_00000002380606171955960010000007526282745161889965_);fill:#0B72AC;}
	.st60{clip-path:url(#SVGID_00000020397900495409475010000007543956199689353608_);}
	.st61{clip-path:url(#SVGID_00000003825953018165752790000003422279264200475834_);fill:#0B72AC;}
	.st62{clip-path:url(#SVGID_00000050627372855428837680000010321131401672572552_);}
	.st63{clip-path:url(#SVGID_00000016057924316257220070000001812186370417210770_);fill:#0B72AC;}
	.st64{clip-path:url(#SVGID_00000060749661280611392320000005898841375634384803_);}
	.st65{clip-path:url(#SVGID_00000019678235923620702610000003649700861028808834_);fill:#419D2B;}
	.st66{fill:none;}
	
		.st67{clip-path:url(#SVGID_00000180335409320912345910000006794555769410781880_);fill:url(#SVGID_00000160890424283754280910000002945076628595315857_);}
	
		.st68{clip-path:url(#SVGID_00000129171773437046231040000005358515596832182963_);fill:url(#SVGID_00000042710900362960122780000002390796667905116589_);}
	
		.st69{clip-path:url(#SVGID_00000003087653904625384510000003555600611543556520_);fill:url(#SVGID_00000162310077010404995400000018113009016664644541_);}
	
		.st70{clip-path:url(#SVGID_00000137097053053104774320000013313899446488490636_);fill:url(#SVGID_00000144339449536962249870000015103372336615000468_);}
	
		.st71{clip-path:url(#SVGID_00000182493146569222732580000009257083833114507931_);fill:url(#SVGID_00000128469748048000034020000015948155595357564811_);}
	
		.st72{clip-path:url(#SVGID_00000183216402268771291940000001313075614874108303_);fill:url(#SVGID_00000172428033349406220160000011147466703932049576_);}
	
		.st73{clip-path:url(#SVGID_00000054981911106294061260000012712176328431374767_);fill:url(#SVGID_00000155854869877515730670000008056847671951617926_);}
	
		.st74{clip-path:url(#SVGID_00000062163898375753493590000000674928311490839208_);fill:url(#SVGID_00000078741339528741004680000015055609607230162064_);}
	
		.st75{clip-path:url(#SVGID_00000104692980808622340290000017656601645988208810_);fill:url(#SVGID_00000146474077277603031050000016625353994248949145_);}
	
		.st76{clip-path:url(#SVGID_00000086678411586007826750000003871547960285220029_);fill:url(#SVGID_00000048462546294834825260000015920960107671568271_);}
	
		.st77{clip-path:url(#SVGID_00000072242197908272560220000016559573544850982324_);fill:url(#SVGID_00000163051294505501547840000000751256124600155266_);}
	
		.st78{clip-path:url(#SVGID_00000009567761499327785590000014050582000160961206_);fill:url(#SVGID_00000103987758509631735040000006490526088707693483_);}
	
		.st79{clip-path:url(#SVGID_00000029730775987857817880000011547803371518460825_);fill:url(#SVGID_00000083047710200646989350000007517001445102177682_);}
	
		.st80{clip-path:url(#SVGID_00000150781094632571465180000014153690073343565980_);fill:url(#SVGID_00000154401925008928112820000018237516804563827869_);}
	.st81{clip-path:url(#SVGID_00000063602176792222044420000006573409403914743990_);}
	.st82{clip-path:url(#SVGID_00000088132899554531331540000009077975256778401453_);}
	.st83{clip-path:url(#SVGID_00000022532393887081159230000016231909676405002371_);fill:#D9001A;}
	
		.st84{clip-path:url(#SVGID_00000063602176792222044420000006573409403914743990_);fill:none;stroke:#FFFFFF;stroke-width:1.099;stroke-miterlimit:10;}
	.st85{clip-path:url(#SVGID_00000063602176792222044420000006573409403914743990_);fill:#FFFFFF;}
	.st86{clip-path:url(#SVGID_00000021807545398281385970000014113339270626940092_);}
	.st87{clip-path:url(#SVGID_00000027573740746388412630000001970507474534507669_);fill:#806267;}
	.st88{clip-path:url(#SVGID_00000096758132888516212330000017550948111420212385_);}
	.st89{clip-path:url(#SVGID_00000127035265406526200400000002300197135141973946_);fill:#806267;}
	.st90{clip-path:url(#SVGID_00000056407416505681974420000004945271956934524584_);}
	.st91{clip-path:url(#SVGID_00000141420769283368684180000013754767765046904707_);fill:#806267;}
	.st92{opacity:0.8;clip-path:url(#SVGID_00000063602176792222044420000006573409403914743990_);}
	.st93{clip-path:url(#SVGID_00000124141510218280337650000010791666538562290090_);}
	.st94{clip-path:url(#SVGID_00000085245427508660791650000009356849189525825214_);fill:#FFFFFF;}
	.st95{clip-path:url(#SVGID_00000119112214091129524250000001094676528975419809_);}
	.st96{clip-path:url(#SVGID_00000177451402875628293960000004901283681520738700_);}
	.st97{clip-path:url(#SVGID_00000069389614303889159680000001108723180877518265_);fill:#419D2B;}
	
		.st98{clip-path:url(#SVGID_00000119112214091129524250000001094676528975419809_);fill:none;stroke:#FFFFFF;stroke-width:1.099;stroke-miterlimit:10;}
	.st99{clip-path:url(#SVGID_00000119112214091129524250000001094676528975419809_);fill:#FFFFFF;}
	.st100{clip-path:url(#SVGID_00000164516225898467487890000013019048739834764679_);}
	.st101{clip-path:url(#SVGID_00000069400271996178399430000001091580765058771850_);fill:#419D2B;}
	.st102{clip-path:url(#SVGID_00000119831143314206411740000017513672022407016876_);}
	.st103{clip-path:url(#SVGID_00000163032811284741577020000014151069314455052687_);fill:#419D2B;}
	.st104{clip-path:url(#SVGID_00000085951168263039011560000012626999168349493939_);}
	.st105{clip-path:url(#SVGID_00000171709293808961868540000000141378872405154176_);fill:#D9001A;}
	.st106{clip-path:url(#SVGID_00000147905898679414327280000006360409554920434844_);}
	.st107{clip-path:url(#SVGID_00000183964137102155469160000001964265820509945264_);fill:#0B72AC;}
	.st108{clip-path:url(#SVGID_00000098194437465192871630000000281622860991586744_);}
	.st109{clip-path:url(#SVGID_00000132797927045813492800000014582116003044439976_);fill:#419D2B;}
	.st110{clip-path:url(#SVGID_00000040541079829331663680000008297909430341336505_);}
	.st111{clip-path:url(#SVGID_00000165926290250750649620000004250830594314551171_);fill:#806267;}
	.st112{clip-path:url(#SVGID_00000139987551680109817200000005326485160695213495_);}
	.st113{fill:#84724E;}
	.st114{fill:#FFFFFF;stroke:#805D3B;stroke-miterlimit:10;}
	.st115{fill:#9B8C6D;}
	.st116{fill:none;stroke:#84724E;stroke-width:3;stroke-miterlimit:10;}
	.st117{fill:#311D12;}
	.st118{fill:none;stroke:#9B8C6D;stroke-width:1.6835;stroke-miterlimit:10;}
	.st119{fill:url(#SVGID_00000103245524635231297250000009217579721819333539_);}
	.st120{fill:url(#SVGID_00000182513912830846200500000017458310600831498159_);}
	.st121{fill:url(#SVGID_00000143610804419436666690000004440313445191425982_);}
	.st122{fill:url(#SVGID_00000123401715094864544090000006488223395883763328_);}
	.st123{fill:url(#SVGID_00000005967591402955848590000003613032170919810192_);}
	.st124{fill:url(#SVGID_00000124154029839108325560000004310742374169676472_);}
	.st125{fill:url(#SVGID_00000106842448870635548460000000979445744864532352_);}
	.st126{fill:url(#SVGID_00000080194287090418073560000007034998257912009112_);}
	.st127{fill:url(#SVGID_00000176730512053991128110000007212999722659042743_);}
	.st128{fill:url(#SVGID_00000088835967617570982810000000945846346732232088_);}
	.st129{fill:url(#SVGID_00000178189800914303711230000003684704743282288809_);}
	.st130{fill:url(#SVGID_00000072268839194007136870000018387531322474642344_);}
	.st131{fill:none;stroke:#9B8C6D;stroke-width:0.5;stroke-miterlimit:10;}
	.st132{clip-path:url(#SVGID_00000034788873248519076580000009852971899754471045_);}
	.st133{fill:url(#SVGID_00000165233047770197077790000001556368871137766037_);}
	.st134{fill:url(#SVGID_00000099643055084863981070000015646595094297852600_);}
	.st135{fill:url(#SVGID_00000150822558784639049620000008494181746416426420_);}
	.st136{fill:url(#SVGID_00000049222011444505193030000009906311540904340892_);}
	.st137{fill:url(#SVGID_00000058549635509337687830000008194343127160829850_);}
	.st138{fill:url(#SVGID_00000026165356970193103970000009040061123710164387_);}
	.st139{fill:url(#SVGID_00000093163158363636294790000005242866593696903572_);}
	.st140{fill:url(#SVGID_00000056429847516947161020000009788829816737589644_);}
	.st141{fill:url(#SVGID_00000066483423031842544390000003641471975383881903_);}
	.st142{fill:url(#SVGID_00000161622452566856255240000006868680455724096693_);}
	.st143{fill:url(#SVGID_00000029018805908590169950000007282446755988762288_);}
	.st144{fill:url(#SVGID_00000086691030558970775030000001716064292015117989_);}
	.st145{fill:url(#SVGID_00000048490213489883308060000014410719425754990731_);}
	.st146{fill:url(#SVGID_00000078040686764140346410000006887624135903644073_);}
	.st147{fill:url(#SVGID_00000026146866071864655680000015076533972937444521_);}
	.st148{fill:url(#SVGID_00000008121355159079699710000007837165706464730241_);}
	.st149{fill:url(#SVGID_00000040533020325251910690000012374823278300840833_);}
	.st150{fill:url(#SVGID_00000015329142997185608630000001908476019664510849_);}
	.st151{fill:url(#SVGID_00000116227027763049679260000012625893967397151900_);}
	.st152{fill:url(#SVGID_00000079446045188528397620000008043428887655996318_);}
	.st153{fill:url(#SVGID_00000174575364351760987770000007566337777511017628_);}
	.st154{fill:url(#SVGID_00000183209775785705706970000007893642045342959295_);}
	.st155{fill:url(#SVGID_00000178179697407169108530000000208930694707126439_);}
	.st156{fill:url(#SVGID_00000013178916325477350870000005413099630809242242_);}
	.st157{fill:none;stroke:#8C734B;stroke-miterlimit:10;}
	.st158{fill:#A38D6C;}
	.st159{fill:none;stroke:#8C734B;stroke-width:3;stroke-miterlimit:10;}
	.st160{clip-path:url(#SVGID_00000120536336622010504620000003611331046014104716_);fill:#806E48;}
	.st161{clip-path:url(#SVGID_00000093160299522664418090000005667443525189659561_);fill:#806E48;}
	.st162{clip-path:url(#SVGID_00000179613246975827362280000012005760932065595053_);fill:#806E48;}
	.st163{opacity:0.7;}
	.st164{fill:url(#SVGID_00000137099250867302062300000011061052044859840143_);}
	.st165{fill:url(#SVGID_00000118379010940966539250000017778299615380708517_);}
	.st166{fill:url(#SVGID_00000041257928547143284920000005056576662663019145_);}
	.st167{fill:url(#SVGID_00000029762819462629989570000001672274607604866183_);}
	.st168{fill:url(#SVGID_00000149343197741792577180000002499585544346798773_);}
	.st169{fill:url(#SVGID_00000029759521882946373650000011337083654645333944_);}
	.st170{fill:url(#SVGID_00000082327142959957777700000003004131623243947165_);}
	.st171{fill:url(#SVGID_00000068663447322726014870000004783667929471499676_);}
	.st172{fill:url(#SVGID_00000007421252893979322060000014617455753566710715_);}
	.st173{fill:url(#SVGID_00000173847987064813802940000000651651949227587513_);}
	.st174{fill:url(#SVGID_00000097460905008058905870000003800511387500416655_);}
	.st175{fill:url(#SVGID_00000121960328882788787410000017526796746981313194_);}
	.st176{clip-path:url(#SVGID_00000124146298581172619940000003354704840675781271_);fill:#806E48;}
	.st177{fill:url(#SVGID_00000015330246932375021750000006583032934688905660_);}
	.st178{fill:url(#SVGID_00000179636936262854703920000002053759559220183713_);}
	.st179{fill:url(#SVGID_00000117665916926134368150000002844425534996068026_);}
	.st180{fill:url(#SVGID_00000026128753430476075490000005041387822244651693_);}
	.st181{fill:url(#SVGID_00000095325039264204548380000015305044116854413699_);}
	.st182{fill:url(#SVGID_00000139280647051390304970000016304349258262965136_);}
	.st183{fill:url(#SVGID_00000119087501432431937700000006299265812036754562_);}
	.st184{fill:url(#SVGID_00000041977179983322466560000003173037242669033622_);}
	.st185{fill:url(#SVGID_00000011739495434151528450000001393751447059711671_);}
	.st186{fill:url(#SVGID_00000054264271525298713660000012511872027353817023_);}
	.st187{fill:url(#SVGID_00000127724148525708527880000007853719364242776509_);}
	.st188{fill:url(#SVGID_00000027570914537146018770000013388448336442981023_);}
	.st189{clip-path:url(#SVGID_00000065792795205338122800000005656525940639462034_);fill:#806E48;}
	.st190{fill:#666666;}
</style>
<g>
	<g>
		<g>
			<g>
				<path class="st2" d="M113.01,19.54c-0.33,0.22-0.73,0.43-1.2,0.62c-0.47,0.19-0.97,0.36-1.5,0.51
					c-0.53,0.15-1.08,0.26-1.64,0.34c-0.56,0.08-1.09,0.12-1.58,0.12c-1.54,0-2.93-0.25-4.17-0.76c-1.24-0.5-2.3-1.2-3.18-2.09
					c-0.88-0.89-1.55-1.93-2.02-3.11c-0.47-1.18-0.7-2.46-0.7-3.84c0-1.49,0.26-2.85,0.78-4.1c0.52-1.25,1.24-2.32,2.16-3.23
					c0.92-0.91,1.98-1.61,3.19-2.1c1.21-0.5,2.49-0.74,3.85-0.74c1.03,0,1.99,0.13,2.9,0.39c0.91,0.26,1.73,0.61,2.46,1.05
					l-0.5,1.21c-0.42-0.26-0.9-0.48-1.43-0.67c-0.53-0.19-1.08-0.34-1.64-0.45c-0.56-0.11-1.11-0.17-1.66-0.17
					c-1.25,0-2.4,0.22-3.47,0.66c-1.06,0.44-1.99,1.05-2.78,1.84c-0.79,0.79-1.4,1.72-1.84,2.78c-0.44,1.06-0.66,2.22-0.66,3.47
					c0,1.21,0.21,2.33,0.62,3.37c0.41,1.04,1,1.94,1.76,2.72c0.76,0.78,1.67,1.38,2.74,1.82c1.06,0.43,2.25,0.65,3.55,0.65
					c0.77,0,1.58-0.09,2.42-0.28c0.84-0.18,1.57-0.45,2.17-0.8v-5.42h-4.4v-1.29h5.75V19.54z"/>
				<path class="st2" d="M116.94,20.91l8.25-20.39h0.11l8.25,20.39h-1.51l-7.18-18.24l0.94-0.52l-7.51,18.76H116.94z M120.93,13.18
					h8.67l0.39,1.27h-9.38L120.93,13.18z"/>
				<path class="st2" d="M143.38,13.95l-7.29-12.57h1.65l6.58,11.44l-0.47,0.03l6.55-11.47h1.62l-7.29,12.57v6.96h-1.35V13.95z"/>
				<path class="st2" d="M166.02,3.58c-0.57-0.28-1.27-0.53-2.09-0.77c-0.83-0.24-1.65-0.36-2.48-0.36c-1.28,0-2.31,0.32-3.08,0.96
					c-0.77,0.64-1.16,1.45-1.16,2.42c0,0.73,0.22,1.34,0.66,1.83c0.44,0.49,1.02,0.9,1.73,1.24c0.72,0.34,1.48,0.67,2.28,0.98
					c0.64,0.24,1.28,0.5,1.91,0.8c0.63,0.29,1.21,0.65,1.72,1.07c0.51,0.42,0.92,0.94,1.22,1.57c0.3,0.62,0.45,1.39,0.45,2.31
					c0,1.08-0.26,2.04-0.77,2.88c-0.51,0.83-1.23,1.48-2.15,1.94c-0.92,0.46-1.98,0.69-3.19,0.69c-0.97,0-1.86-0.12-2.65-0.36
					c-0.8-0.24-1.49-0.52-2.09-0.84c-0.6-0.32-1.07-0.59-1.42-0.81l0.63-1.1c0.4,0.29,0.89,0.59,1.47,0.88
					c0.58,0.29,1.21,0.54,1.88,0.74c0.68,0.2,1.36,0.3,2.04,0.3c0.79,0,1.55-0.16,2.3-0.47c0.74-0.31,1.36-0.78,1.84-1.42
					c0.49-0.63,0.73-1.44,0.73-2.41c0-0.94-0.23-1.69-0.69-2.27c-0.46-0.58-1.05-1.05-1.76-1.42c-0.72-0.37-1.48-0.7-2.28-0.99
					c-0.62-0.24-1.25-0.49-1.87-0.76c-0.62-0.27-1.19-0.59-1.71-0.96c-0.51-0.38-0.92-0.83-1.22-1.36c-0.3-0.53-0.45-1.17-0.45-1.93
					c0-0.94,0.24-1.75,0.72-2.45c0.48-0.7,1.12-1.24,1.94-1.64c0.82-0.39,1.75-0.6,2.79-0.62c0.92,0,1.85,0.12,2.79,0.36
					c0.94,0.24,1.77,0.54,2.46,0.91L166.02,3.58z"/>
				<path class="st2" d="M171,11.17c0-1.38,0.26-2.66,0.77-3.87c0.51-1.2,1.23-2.26,2.15-3.19c0.92-0.93,1.98-1.65,3.18-2.17
					c1.2-0.52,2.49-0.78,3.87-0.78c1.38,0,2.67,0.26,3.88,0.78c1.21,0.52,2.27,1.25,3.19,2.17c0.92,0.93,1.64,1.99,2.16,3.19
					c0.52,1.2,0.78,2.49,0.78,3.87c0,1.38-0.26,2.66-0.78,3.87c-0.52,1.2-1.24,2.26-2.16,3.18c-0.92,0.92-1.98,1.63-3.19,2.15
					c-1.21,0.51-2.5,0.77-3.88,0.77c-1.38,0-2.66-0.25-3.87-0.74c-1.2-0.5-2.26-1.19-3.18-2.09c-0.92-0.9-1.63-1.95-2.15-3.16
					C171.26,13.92,171,12.6,171,11.17z M172.38,11.2c0,1.19,0.22,2.31,0.66,3.36c0.44,1.05,1.05,1.96,1.84,2.75
					c0.79,0.79,1.7,1.41,2.74,1.86c1.04,0.45,2.14,0.67,3.32,0.67c1.21,0,2.34-0.22,3.38-0.67c1.05-0.45,1.96-1.07,2.75-1.86
					c0.79-0.79,1.41-1.71,1.86-2.75c0.45-1.05,0.67-2.17,0.67-3.38c0-1.19-0.23-2.32-0.67-3.37c-0.45-1.05-1.07-1.98-1.86-2.78
					c-0.79-0.8-1.71-1.43-2.75-1.88c-1.05-0.46-2.16-0.69-3.36-0.69c-1.21,0-2.34,0.23-3.38,0.7c-1.05,0.47-1.96,1.11-2.74,1.91
					c-0.78,0.81-1.39,1.74-1.82,2.79C172.59,8.91,172.38,10.03,172.38,11.2z"/>
				<path class="st2" d="M203.05,12.02l5.42,8.89h-1.57l-5.45-8.86L203.05,12.02z M200.41,1.38c0.73,0,1.46,0.11,2.19,0.32
					c0.72,0.21,1.38,0.54,1.98,0.99c0.6,0.45,1.08,1.02,1.44,1.72c0.37,0.7,0.55,1.53,0.55,2.5c0,0.73-0.11,1.44-0.33,2.13
					c-0.22,0.69-0.58,1.31-1.07,1.86c-0.49,0.55-1.14,0.99-1.93,1.32c-0.79,0.33-1.76,0.5-2.92,0.5h-3.03v8.2h-1.35V1.38H200.41z
					 M200.25,11.42c0.97,0,1.78-0.14,2.42-0.41c0.64-0.28,1.15-0.63,1.51-1.07c0.37-0.44,0.63-0.92,0.78-1.44
					c0.16-0.52,0.23-1.03,0.23-1.53c0-0.59-0.11-1.14-0.32-1.65c-0.21-0.51-0.52-0.97-0.92-1.36c-0.4-0.39-0.89-0.71-1.46-0.94
					c-0.57-0.23-1.2-0.34-1.9-0.34h-3.3v8.75H200.25z"/>
				<path class="st2" d="M229.71,21.38L214.31,4.02l0.36-0.28l0.03,17.17h-1.32V0.97h0.08l15.41,17.5l-0.36,0.11l-0.03-17.2h1.29v20
					H229.71z"/>
			</g>
			<g>
				<path class="st3" d="M105.5,37.25h1.35l6.71,17.66l-0.41-0.11l6.55-17.55h1.43l-7.84,20.36L105.5,37.25z M96.5,37.25h1.54
					l6.47,17.66l-0.3-0.08l4.07-11.01l0.63,1.73l-4.7,12.08L96.5,37.25z"/>
				<path class="st3" d="M124.34,46.99c0-1.38,0.26-2.66,0.77-3.87c0.51-1.2,1.23-2.26,2.15-3.19c0.92-0.93,1.98-1.65,3.18-2.17
					c1.2-0.52,2.49-0.78,3.87-0.78c1.38,0,2.67,0.26,3.88,0.78c1.21,0.52,2.27,1.25,3.19,2.17c0.92,0.93,1.64,1.99,2.16,3.19
					c0.52,1.2,0.78,2.49,0.78,3.87c0,1.38-0.26,2.66-0.78,3.87c-0.52,1.2-1.24,2.26-2.16,3.18c-0.92,0.92-1.98,1.63-3.19,2.15
					c-1.21,0.51-2.5,0.77-3.88,0.77c-1.38,0-2.66-0.25-3.87-0.74c-1.2-0.5-2.26-1.19-3.18-2.09c-0.92-0.9-1.63-1.95-2.15-3.16
					C124.6,49.74,124.34,48.42,124.34,46.99z M125.72,47.02c0,1.19,0.22,2.31,0.66,3.36c0.44,1.05,1.05,1.96,1.84,2.75
					c0.79,0.79,1.7,1.41,2.74,1.86c1.04,0.45,2.14,0.67,3.32,0.67c1.21,0,2.34-0.22,3.38-0.67c1.05-0.45,1.96-1.07,2.75-1.86
					c0.79-0.79,1.41-1.71,1.86-2.75c0.45-1.05,0.67-2.17,0.67-3.38c0-1.19-0.23-2.32-0.67-3.37c-0.45-1.05-1.07-1.98-1.86-2.78
					c-0.79-0.8-1.71-1.43-2.75-1.88c-1.05-0.46-2.16-0.69-3.36-0.69c-1.21,0-2.34,0.23-3.38,0.7c-1.05,0.47-1.96,1.11-2.74,1.91
					c-0.78,0.81-1.38,1.74-1.82,2.79C125.93,44.73,125.72,45.84,125.72,47.02z"/>
				<path class="st3" d="M156.39,47.84l5.42,8.89h-1.57l-5.45-8.86L156.39,47.84z M153.75,37.2c0.73,0,1.46,0.11,2.19,0.32
					c0.72,0.21,1.38,0.54,1.98,0.99c0.6,0.45,1.08,1.02,1.44,1.72c0.37,0.7,0.55,1.53,0.55,2.5c0,0.73-0.11,1.44-0.33,2.13
					c-0.22,0.69-0.58,1.31-1.07,1.86c-0.49,0.55-1.14,0.99-1.93,1.32c-0.79,0.33-1.76,0.5-2.92,0.5h-3.03v8.2h-1.35V37.2H153.75z
					 M153.59,47.24c0.97,0,1.78-0.14,2.42-0.41c0.64-0.28,1.15-0.63,1.51-1.07c0.37-0.44,0.63-0.92,0.78-1.44
					c0.16-0.52,0.23-1.03,0.23-1.53c0-0.59-0.11-1.14-0.32-1.65c-0.21-0.51-0.52-0.97-0.92-1.36c-0.4-0.39-0.89-0.71-1.46-0.94
					c-0.57-0.23-1.2-0.34-1.9-0.34h-3.3v8.75H153.59z"/>
				<path class="st3" d="M168.09,46l-0.06,0.96l0.08-0.25l9.66-9.52h1.73l-8.09,8.01l9,11.53h-1.71l-8.28-10.67l-2.37,2.26
					l0.03,8.42h-1.38V37.2h1.38V46z"/>
				<path class="st3" d="M194.5,39.4c-0.57-0.28-1.27-0.53-2.09-0.77c-0.83-0.24-1.65-0.36-2.48-0.36c-1.28,0-2.31,0.32-3.08,0.96
					c-0.77,0.64-1.16,1.45-1.16,2.42c0,0.73,0.22,1.34,0.66,1.83c0.44,0.49,1.02,0.9,1.73,1.24c0.72,0.34,1.48,0.66,2.28,0.98
					c0.64,0.24,1.28,0.5,1.91,0.8c0.63,0.29,1.21,0.65,1.72,1.07c0.51,0.42,0.92,0.94,1.22,1.57c0.3,0.62,0.45,1.39,0.45,2.31
					c0,1.08-0.26,2.04-0.77,2.88c-0.51,0.83-1.23,1.48-2.15,1.94c-0.92,0.46-1.98,0.69-3.19,0.69c-0.97,0-1.86-0.12-2.65-0.36
					c-0.8-0.24-1.5-0.52-2.09-0.84c-0.6-0.32-1.07-0.59-1.42-0.81l0.63-1.1c0.4,0.29,0.89,0.59,1.47,0.88
					c0.58,0.29,1.21,0.54,1.88,0.74c0.68,0.2,1.36,0.3,2.04,0.3c0.79,0,1.55-0.16,2.3-0.47c0.74-0.31,1.36-0.78,1.84-1.42
					c0.49-0.63,0.73-1.44,0.73-2.41c0-0.94-0.23-1.69-0.69-2.27c-0.46-0.58-1.05-1.05-1.76-1.42c-0.72-0.37-1.48-0.7-2.28-0.99
					c-0.62-0.24-1.25-0.49-1.87-0.76c-0.62-0.27-1.19-0.59-1.71-0.96c-0.51-0.38-0.92-0.83-1.22-1.36c-0.3-0.53-0.45-1.17-0.45-1.93
					c0-0.94,0.24-1.75,0.72-2.45c0.48-0.7,1.12-1.24,1.94-1.64c0.82-0.39,1.75-0.6,2.79-0.62c0.92,0,1.85,0.12,2.79,0.36
					c0.94,0.24,1.77,0.54,2.46,0.91L194.5,39.4z"/>
				<path class="st3" d="M279.58,39.4c-0.57-0.28-1.27-0.53-2.09-0.77c-0.83-0.24-1.65-0.36-2.48-0.36c-1.28,0-2.31,0.32-3.08,0.96
					c-0.77,0.64-1.16,1.45-1.16,2.42c0,0.73,0.22,1.34,0.66,1.83c0.44,0.49,1.02,0.9,1.73,1.24c0.72,0.34,1.48,0.66,2.28,0.98
					c0.64,0.24,1.28,0.5,1.91,0.8c0.63,0.29,1.21,0.65,1.72,1.07c0.51,0.42,0.92,0.94,1.22,1.57c0.3,0.62,0.45,1.39,0.45,2.31
					c0,1.08-0.26,2.04-0.77,2.88c-0.51,0.83-1.23,1.48-2.15,1.94c-0.92,0.46-1.98,0.69-3.19,0.69c-0.97,0-1.86-0.12-2.65-0.36
					c-0.8-0.24-1.5-0.52-2.09-0.84c-0.6-0.32-1.07-0.59-1.42-0.81l0.63-1.1c0.4,0.29,0.89,0.59,1.47,0.88
					c0.58,0.29,1.21,0.54,1.88,0.74c0.68,0.2,1.36,0.3,2.04,0.3c0.79,0,1.55-0.16,2.3-0.47c0.74-0.31,1.36-0.78,1.84-1.42
					c0.49-0.63,0.73-1.44,0.73-2.41c0-0.94-0.23-1.69-0.69-2.27c-0.46-0.58-1.05-1.05-1.76-1.42c-0.72-0.37-1.48-0.7-2.28-0.99
					c-0.62-0.24-1.25-0.49-1.87-0.76s-1.19-0.59-1.71-0.96c-0.51-0.38-0.92-0.83-1.22-1.36c-0.3-0.53-0.45-1.17-0.45-1.93
					c0-0.94,0.24-1.75,0.72-2.45c0.48-0.7,1.12-1.24,1.94-1.64c0.82-0.39,1.75-0.6,2.79-0.62c0.92,0,1.85,0.12,2.79,0.36
					c0.94,0.24,1.77,0.54,2.46,0.91L279.58,39.4z"/>
				<path class="st3" d="M199.15,37.2h12.79v1.29h-5.75v18.24h-1.35V38.49h-5.69V37.2z"/>
				<path class="st3" d="M221.9,49.77l-7.29-12.57h1.65l6.58,11.44l-0.47,0.03l6.55-11.47h1.62l-7.29,12.57v6.96h-1.35V49.77z"/>
				<path class="st3" d="M234.78,37.2h1.35v18.24h10.7v1.29h-12.05V37.2z"/>
				<path class="st3" d="M251.37,37.2h12.05v1.29h-10.7v7.76h9.63v1.29h-9.63v7.9h11.09v1.29h-12.44V37.2z"/>
			</g>
		</g>
	</g>
	<g>
		<line class="st4" x1="0.84" y1="0" x2="0.84" y2="58.16"/>
		<line class="st4" x1="15.39" y1="0" x2="15.39" y2="58.16"/>
		<line class="st4" x1="29.94" y1="0" x2="29.94" y2="58.16"/>
		<line class="st4" x1="44.49" y1="0" x2="44.49" y2="58.16"/>
		<line class="st4" x1="59.04" y1="0" x2="59.04" y2="58.16"/>
		<line class="st4" x1="73.59" y1="0" x2="73.59" y2="58.16"/>
	</g>
</g>
</svg>
