<?xml version="1.0" encoding="utf-8"?>
<!-- Generator: Adobe Illustrator 26.3.1, SVG Export Plug-In . SVG Version: 6.00 Build 0)  -->
<svg version="1.1" id="Layer_1" xmlns="http://www.w3.org/2000/svg" xmlns:xlink="http://www.w3.org/1999/xlink" x="0px" y="0px"
	 viewBox="0 0 58.55 76.53" style="enable-background:new 0 0 58.55 76.53;" xml:space="preserve">
<style type="text/css">
	.st0{opacity:0.09;}
	.st1{fill:#767467;}
	.st2{fill:#8C734B;}
	.st3{fill:#34170A;}
	.st4{fill:none;stroke:#A38D6C;stroke-width:1.6835;stroke-miterlimit:10;}
	.st5{fill:url(#SVGID_00000168796017873357321740000009192273639864770967_);}
	.st6{fill:url(#SVGID_00000072273505546543121450000016481409380418088070_);}
	.st7{fill:url(#SVGID_00000131338111676885149390000014808491551786700698_);}
	.st8{fill:url(#SVGID_00000066490471472523309370000007393497515898525575_);}
	.st9{fill:url(#SVGID_00000151531818633180253740000006303543261393210020_);}
	.st10{fill:url(#SVGID_00000139980767383800332090000009252418080815998369_);}
	.st11{fill:url(#SVGID_00000137111497308324222850000003047557305834298802_);}
	.st12{fill:url(#SVGID_00000110454832480512639760000007704643521475084212_);}
	.st13{fill:url(#SVGID_00000033341944658098908680000008043182278618235046_);}
	.st14{fill:url(#SVGID_00000011010777081931846160000006335474249828241797_);}
	.st15{fill:url(#SVGID_00000101786531250635666400000009622850634093695908_);}
	.st16{fill:url(#SVGID_00000109026352326455299340000014929937551612867507_);}
	.st17{fill:#231F20;}
	.st18{fill:url(#SVGID_00000003073495730228576470000005392574545767414423_);}
	.st19{fill:url(#SVGID_00000106128162814311183350000016137056495039412097_);}
	.st20{fill:url(#SVGID_00000121970207362699840190000000837536096937765032_);}
	.st21{fill:url(#SVGID_00000046311322766845890020000012395477395769012413_);}
	.st22{fill:url(#SVGID_00000106844214227088104570000015683525433331252890_);}
	.st23{fill:url(#SVGID_00000182487833405697149470000015489799795368816817_);}
	.st24{fill:url(#SVGID_00000065783471037188503620000012010925410610013877_);}
	.st25{fill:url(#SVGID_00000149359512953784624990000015145250516210414468_);}
	.st26{fill:url(#SVGID_00000077322133281125990810000014238514332211963550_);}
	.st27{fill:url(#SVGID_00000154385680297210272080000008541190525714342074_);}
	.st28{fill:url(#SVGID_00000181796225942074575860000002458771824196389294_);}
	.st29{fill:url(#SVGID_00000158719515984037018790000017179312016218145167_);}
	.st30{fill:none;stroke:#A38D6C;stroke-width:0.5;stroke-miterlimit:10;}
	.st31{fill:#A09480;}
	.st32{fill:#FFFFFF;}
	.st33{fill:#E0DEDC;}
	.st34{clip-path:url(#SVGID_00000129921630792442933210000016434792295784005521_);fill:#806E48;}
	.st35{clip-path:url(#SVGID_00000015313175141523846260000005540421240826713760_);fill:#806E48;}
	.st36{clip-path:url(#SVGID_00000069363645981236985900000002224666436269953977_);fill:#806E48;}
	.st37{fill:#808082;}
	.st38{clip-path:url(#SVGID_00000160913191886247663250000015802066708521717920_);}
	.st39{clip-path:url(#SVGID_00000000201979502885979780000014436275620040733098_);}
	.st40{clip-path:url(#SVGID_00000029728662651425688640000003148721691170886330_);}
	.st41{clip-path:url(#SVGID_00000060718108659126270140000011262954292615536541_);fill:#D9001A;}
	
		.st42{clip-path:url(#SVGID_00000000201979502885979780000014436275620040733098_);fill:none;stroke:#FFFFFF;stroke-width:1.099;stroke-miterlimit:10;}
	.st43{clip-path:url(#SVGID_00000167363458165089342330000012840306388296983212_);}
	.st44{clip-path:url(#SVGID_00000029767107712519939730000003609998870982964372_);fill:#D9001A;}
	.st45{fill:none;stroke:#FFFFFF;stroke-width:1.099;stroke-miterlimit:10;}
	.st46{clip-path:url(#SVGID_00000165230181337196994770000001827396672696649403_);}
	.st47{clip-path:url(#SVGID_00000166653355018019289220000008973373567371163317_);fill:#D9001A;}
	.st48{clip-path:url(#SVGID_00000085969384587587589020000006729949936153060762_);}
	.st49{clip-path:url(#SVGID_00000163754602210666767760000003466784103577390999_);fill:#D9001A;}
	.st50{clip-path:url(#SVGID_00000011022044011804167320000017503964365224097414_);}
	.st51{clip-path:url(#SVGID_00000129892185038996908450000016006145454296898736_);fill:#D9001A;}
	.st52{clip-path:url(#SVGID_00000045619097955175502080000000905767181246259854_);}
	.st53{clip-path:url(#SVGID_00000129914021549441236290000001205936424032246448_);fill:#D9001A;}
	.st54{clip-path:url(#SVGID_00000087376126134072145250000017624268075063061127_);}
	.st55{clip-path:url(#SVGID_00000029036489353991034120000016907192931094501809_);fill:#0B72AC;}
	.st56{clip-path:url(#SVGID_00000144309852534094396680000014488381823484993699_);}
	.st57{clip-path:url(#SVGID_00000147931400789719508730000005977051517129099453_);fill:#0B72AC;}
	.st58{clip-path:url(#SVGID_00000130642486994442768600000003388688753155924366_);}
	.st59{clip-path:url(#SVGID_00000148651166912537248370000009261718080894832318_);fill:#0B72AC;}
	.st60{clip-path:url(#SVGID_00000170263473998749154480000004487789775578272426_);}
	.st61{clip-path:url(#SVGID_00000031925113750184058880000016951140826557491900_);fill:#0B72AC;}
	.st62{clip-path:url(#SVGID_00000182513908767094418700000010361425906159117184_);}
	.st63{clip-path:url(#SVGID_00000170996112573253822910000012084390281845311932_);fill:#0B72AC;}
	.st64{clip-path:url(#SVGID_00000090982479839996090440000008699446049052507045_);}
	.st65{clip-path:url(#SVGID_00000044892873556020511570000017347262438853379461_);fill:#419D2B;}
	.st66{fill:none;}
	
		.st67{clip-path:url(#SVGID_00000000195502023171900980000002857809153121962401_);fill:url(#SVGID_00000052065961011584846190000011682748208263712165_);}
	
		.st68{clip-path:url(#SVGID_00000023245593455320173600000007119129827681674125_);fill:url(#SVGID_00000119092417313523664520000012089234304298734218_);}
	
		.st69{clip-path:url(#SVGID_00000150097878040501955990000018023902321477658275_);fill:url(#SVGID_00000093857887948955603200000003387051799210457492_);}
	
		.st70{clip-path:url(#SVGID_00000068655068520009619530000007030117025429399169_);fill:url(#SVGID_00000095312635857735099130000008404179744854621593_);}
	
		.st71{clip-path:url(#SVGID_00000046314817274639052730000008222158306852316051_);fill:url(#SVGID_00000162353270230761458490000005558079943849091225_);}
	
		.st72{clip-path:url(#SVGID_00000159468259535557368010000002994185892919791509_);fill:url(#SVGID_00000183964024606874831200000007156003973650131606_);}
	
		.st73{clip-path:url(#SVGID_00000036250102820735436830000006866006459746929813_);fill:url(#SVGID_00000093860723110584262880000002573405501934200996_);}
	
		.st74{clip-path:url(#SVGID_00000023280006686620718900000015529790094959296146_);fill:url(#SVGID_00000057130607009152298930000006368695107956673207_);}
	
		.st75{clip-path:url(#SVGID_00000026131300417892453820000002976003676489053606_);fill:url(#SVGID_00000012462361013263217640000009398003293053640604_);}
	
		.st76{clip-path:url(#SVGID_00000027562455984867333280000013962241699057620623_);fill:url(#SVGID_00000005265975476982306060000017237387354468866961_);}
	
		.st77{clip-path:url(#SVGID_00000160172885696360726840000012949340293163614632_);fill:url(#SVGID_00000089572096100025887580000007290433551903919292_);}
	
		.st78{clip-path:url(#SVGID_00000049907115898017752390000001420480634255151290_);fill:url(#SVGID_00000104690255919838437400000016230950191066276790_);}
	
		.st79{clip-path:url(#SVGID_00000035504372451888519700000008429573589175515265_);fill:url(#SVGID_00000176008880130137341150000013042049339987088548_);}
	
		.st80{clip-path:url(#SVGID_00000171686808023119461510000012985967448209179786_);fill:url(#SVGID_00000088835906870913919230000014743134367372875935_);}
	.st81{clip-path:url(#SVGID_00000014606296858334677420000003925271762135359903_);}
	.st82{clip-path:url(#SVGID_00000085971993720248616310000010226531700526673074_);}
	.st83{clip-path:url(#SVGID_00000126305035716230691430000006418463484319211669_);fill:#D9001A;}
	
		.st84{clip-path:url(#SVGID_00000014606296858334677420000003925271762135359903_);fill:none;stroke:#FFFFFF;stroke-width:1.099;stroke-miterlimit:10;}
	.st85{clip-path:url(#SVGID_00000014606296858334677420000003925271762135359903_);fill:#FFFFFF;}
	.st86{clip-path:url(#SVGID_00000027588708078847960780000001890562937858165636_);}
	.st87{clip-path:url(#SVGID_00000036215888002085666430000002290858523026439602_);fill:#806267;}
	.st88{clip-path:url(#SVGID_00000165211852463728577870000007840657740697091738_);}
	.st89{clip-path:url(#SVGID_00000012433230042660010770000007022373070624996236_);fill:#806267;}
	.st90{clip-path:url(#SVGID_00000175303054607614227010000013097086211428461706_);}
	.st91{clip-path:url(#SVGID_00000100348897143249209600000009366897822408504709_);fill:#806267;}
	.st92{opacity:0.8;clip-path:url(#SVGID_00000014606296858334677420000003925271762135359903_);}
	.st93{clip-path:url(#SVGID_00000154405243827924665800000016785272741095378818_);}
	.st94{clip-path:url(#SVGID_00000022532080948218130550000003289230242117626002_);fill:#FFFFFF;}
	.st95{clip-path:url(#SVGID_00000137100381257791668040000012494456449176301724_);}
	.st96{clip-path:url(#SVGID_00000034076790506600250470000003829661289447616679_);}
	.st97{clip-path:url(#SVGID_00000168084839293260871720000006253384573019457708_);fill:#419D2B;}
	
		.st98{clip-path:url(#SVGID_00000137100381257791668040000012494456449176301724_);fill:none;stroke:#FFFFFF;stroke-width:1.099;stroke-miterlimit:10;}
	.st99{clip-path:url(#SVGID_00000137100381257791668040000012494456449176301724_);fill:#FFFFFF;}
	.st100{clip-path:url(#SVGID_00000124125848517936567560000007849492822840322441_);}
	.st101{clip-path:url(#SVGID_00000057136282052779002420000005497178074655441285_);fill:#419D2B;}
	.st102{clip-path:url(#SVGID_00000076598453325602219660000007955238447679837630_);}
	.st103{clip-path:url(#SVGID_00000034083548178356713180000006525361862337382330_);fill:#419D2B;}
	.st104{clip-path:url(#SVGID_00000009548368853356234720000014453864612588714117_);}
	.st105{clip-path:url(#SVGID_00000030485174913868005830000003490322848253210264_);fill:#D9001A;}
	.st106{clip-path:url(#SVGID_00000109014111139595369560000003333140309857453185_);}
	.st107{clip-path:url(#SVGID_00000170246232797915740770000003579071328702240163_);fill:#0B72AC;}
	.st108{clip-path:url(#SVGID_00000142134941365477374810000010466778529720888997_);}
	.st109{clip-path:url(#SVGID_00000038391933127846680210000013658666691660652717_);fill:#419D2B;}
	.st110{clip-path:url(#SVGID_00000165233285643566314060000001604253041657341884_);}
	.st111{clip-path:url(#SVGID_00000014603378339326398600000001770906106358890680_);fill:#806267;}
	.st112{clip-path:url(#SVGID_00000132068024499435293530000014694494510874060423_);}
	.st113{fill:#FFFFFF;stroke:#805D3B;stroke-miterlimit:10;}
	.st114{fill:#A38D6C;}
	.st115{fill:none;stroke:#8C734B;stroke-width:3;stroke-miterlimit:10;}
	.st116{fill:url(#SVGID_00000122680851975553860880000011753946565671059108_);}
	.st117{fill:url(#SVGID_00000139286586073643039240000012528658501148616079_);}
	.st118{fill:url(#SVGID_00000129188327559025570910000017272967386446199212_);}
	.st119{fill:url(#SVGID_00000027571307509427644370000016772344584570573705_);}
	.st120{fill:url(#SVGID_00000081649051875931723200000008662188255475386012_);}
	.st121{fill:url(#SVGID_00000181773676967839578060000003390001495833409156_);}
	.st122{fill:url(#SVGID_00000176040225129517798260000001350793958426051239_);}
	.st123{fill:url(#SVGID_00000087392841508329386330000007302820977467351982_);}
	.st124{fill:url(#SVGID_00000060016703968701354730000002943244414742604201_);}
	.st125{fill:url(#SVGID_00000163765962051930532770000015862964807525036210_);}
	.st126{fill:url(#SVGID_00000084515228893834561670000007038833781284273039_);}
	.st127{fill:url(#SVGID_00000052075818166872353070000011729933879689603770_);}
	.st128{clip-path:url(#SVGID_00000146480096652340931470000013082957964395680163_);}
	.st129{fill:url(#SVGID_00000086666725446947530160000006300865299938270642_);}
	.st130{fill:url(#SVGID_00000093148733652663362930000017960695436195775918_);}
	.st131{fill:url(#SVGID_00000159465473131328618330000009124052952545941144_);}
	.st132{fill:url(#SVGID_00000137115462032779105590000010213040682598689450_);}
	.st133{fill:url(#SVGID_00000109027081708893427380000004103463678774933435_);}
	.st134{fill:url(#SVGID_00000084493767022739805260000003296709336500020376_);}
	.st135{fill:url(#SVGID_00000141455830597329671420000011630678880820870587_);}
	.st136{fill:url(#SVGID_00000088133146015966654050000011143203342959965119_);}
	.st137{fill:url(#SVGID_00000045586228317599750290000016173483296553019279_);}
	.st138{fill:url(#SVGID_00000046326486549230334660000014656317504288437163_);}
	.st139{fill:url(#SVGID_00000085953468056545000340000010303320293262733229_);}
	.st140{fill:url(#SVGID_00000044895002691199452000000002997272399831566464_);}
	.st141{fill:url(#SVGID_00000150816450248649415100000015778452373592246172_);}
	.st142{fill:url(#SVGID_00000064340606284724999410000016478780766920536455_);}
	.st143{fill:url(#SVGID_00000040558891664843662730000002157094341447851455_);}
	.st144{fill:url(#SVGID_00000170960876272502311540000012590231510128564924_);}
	.st145{fill:url(#SVGID_00000150807630307926589700000004094946992157275834_);}
	.st146{fill:url(#SVGID_00000065794533234598467850000010613639146343171225_);}
	.st147{fill:url(#SVGID_00000095299365658048413580000005408689384853935790_);}
	.st148{fill:url(#SVGID_00000034088727553924661980000011158627518617488262_);}
	.st149{fill:url(#SVGID_00000058584324217678928030000016097656321181822350_);}
	.st150{fill:url(#SVGID_00000095308170320870287640000014336856203990816658_);}
	.st151{fill:url(#SVGID_00000127759543436219794590000017390541332404965011_);}
	.st152{fill:url(#SVGID_00000177467934175260796680000003869229634526709417_);}
	.st153{fill:none;stroke:#8C734B;stroke-miterlimit:10;}
	.st154{clip-path:url(#SVGID_00000102533362739429100910000000048352930102586278_);fill:#806E48;}
	.st155{clip-path:url(#SVGID_00000176740556549617752950000011581456843238951313_);fill:#806E48;}
	.st156{clip-path:url(#SVGID_00000145772685931524454540000013967986899629934750_);fill:#806E48;}
	.st157{opacity:0.7;}
	.st158{fill:url(#SVGID_00000134945899043178680380000002451758694419910067_);}
	.st159{fill:url(#SVGID_00000136408413801900452000000005773014284140220589_);}
	.st160{fill:url(#SVGID_00000112596348634543520490000010470298986762863275_);}
	.st161{fill:url(#SVGID_00000029744181501685126730000008745628040439586219_);}
	.st162{fill:url(#SVGID_00000070820600311264367900000004497593248939190442_);}
	.st163{fill:url(#SVGID_00000172406508278488310860000015679192028777519489_);}
	.st164{fill:url(#SVGID_00000067223162700350290090000002022786887514088358_);}
	.st165{fill:url(#SVGID_00000029045384668995235570000013930649780790533011_);}
	.st166{fill:url(#SVGID_00000026850478770957945470000002690464221711254429_);}
	.st167{fill:url(#SVGID_00000168822145380320289760000001366346123303775134_);}
	.st168{fill:url(#SVGID_00000164491950125541683090000015029049274428608932_);}
	.st169{fill:url(#SVGID_00000177448272120967551900000018098823169240758670_);}
	.st170{clip-path:url(#SVGID_00000159468927549605063530000001397827936674005920_);fill:#806E48;}
	.st171{fill:url(#SVGID_00000073691756214284896750000010961590597109295019_);}
	.st172{fill:url(#SVGID_00000041285289772072171730000010832124320672917420_);}
	.st173{fill:url(#SVGID_00000034810720772845101170000000417140834203152824_);}
	.st174{fill:url(#SVGID_00000067949198255367103150000009429592294226608779_);}
	.st175{fill:url(#SVGID_00000164506924077873045360000010071645824323361471_);}
	.st176{fill:url(#SVGID_00000020358285410850391820000010744039296733126053_);}
	.st177{fill:url(#SVGID_00000155143260325399627500000016658243885645739433_);}
	.st178{fill:url(#SVGID_00000023963825575858061960000008454073770694176945_);}
	.st179{fill:url(#SVGID_00000100375830920312167300000001590407887943941770_);}
	.st180{fill:url(#SVGID_00000120558866383690554250000012250110269888881333_);}
	.st181{fill:url(#SVGID_00000134930489904349078760000012612632488919675553_);}
	.st182{fill:url(#SVGID_00000123403542071926328870000008634203573896461969_);}
	.st183{clip-path:url(#SVGID_00000142158755527778264570000010350209603493948835_);fill:#806E48;}
	.st184{fill:#666666;}
</style>
<g>
	<g>
		<g>
			<g>
				<g>
					
						<linearGradient id="SVGID_00000099653398505172903590000001884747711932291994_" gradientUnits="userSpaceOnUse" x1="29.1779" y1="0.855" x2="29.2174" y2="0.855">
						<stop  offset="0" style="stop-color:#190000"/>
						<stop  offset="0.1583" style="stop-color:#270E06"/>
						<stop  offset="0.459" style="stop-color:#4D3215"/>
						<stop  offset="0.7978" style="stop-color:#7E612A"/>
					</linearGradient>
					<path style="fill:url(#SVGID_00000099653398505172903590000001884747711932291994_);" d="M29.19,0.85c-0.01,0-0.01,0-0.01,0
						c0.01,0,0.03,0,0.04,0C29.21,0.85,29.2,0.85,29.19,0.85z"/>
					
						<linearGradient id="SVGID_00000076563129600567872690000013742950572060004229_" gradientUnits="userSpaceOnUse" x1="29.3564" y1="0.8659" x2="29.4708" y2="0.8659">
						<stop  offset="0" style="stop-color:#190000"/>
						<stop  offset="0.1583" style="stop-color:#270E06"/>
						<stop  offset="0.459" style="stop-color:#4D3215"/>
						<stop  offset="0.7978" style="stop-color:#7E612A"/>
					</linearGradient>
					<path style="fill:url(#SVGID_00000076563129600567872690000013742950572060004229_);" d="M29.38,0.86c-0.01,0-0.02,0-0.03,0
						c0.04,0,0.08,0.01,0.11,0.01C29.44,0.87,29.41,0.86,29.38,0.86z"/>
					
						<linearGradient id="SVGID_00000062907503362033909670000006240043970472950958_" gradientUnits="userSpaceOnUse" x1="30.2165" y1="1.0579" x2="30.7408" y2="1.0579">
						<stop  offset="0" style="stop-color:#160000"/>
						<stop  offset="0.1546" style="stop-color:#240D06"/>
						<stop  offset="0.4481" style="stop-color:#4A3015"/>
						<stop  offset="0.7978" style="stop-color:#7E612A"/>
					</linearGradient>
					<path style="fill:url(#SVGID_00000062907503362033909670000006240043970472950958_);" d="M30.42,1.02
						c-0.07-0.02-0.13-0.03-0.2-0.04c0.18,0.04,0.35,0.09,0.52,0.15C30.64,1.09,30.53,1.05,30.42,1.02z"/>
				</g>
				
					<linearGradient id="SVGID_00000110463099728196888840000013783250723092396684_" gradientUnits="userSpaceOnUse" x1="28.8455" y1="0.4683" x2="28.8455" y2="19.1421">
					<stop  offset="0" style="stop-color:#3E1B00"/>
					<stop  offset="0.1068" style="stop-color:#4B2A10"/>
					<stop  offset="0.316" style="stop-color:#6C513A"/>
					<stop  offset="0.6046" style="stop-color:#A18F7E"/>
					<stop  offset="0.7978" style="stop-color:#C8BCAF"/>
				</linearGradient>
				<path style="fill:url(#SVGID_00000110463099728196888840000013783250723092396684_);" d="M37.6,15.32
					c3.75-7.2-2.46-14.96-8.66-14.96h-0.09c-6.2,0-12.53,7.75-8.78,14.96c4.24,8.14,13.55,6.79,13.55,6.79h0
					c-0.67,0.01-1.3-0.03-1.89-0.09c-0.61-0.07-1.18-0.17-1.71-0.3c-0.26-0.06-0.52-0.13-0.77-0.2c-0.45-0.15-0.84-0.32-1.2-0.49
					c-0.36-0.17-0.68-0.34-0.96-0.51c-0.19-0.11-0.35-0.22-0.5-0.32c-0.53-0.27-1.02-0.61-1.43-1.03c-1.96-1.77-3.26-4.85-3.26-8.36
					c0-3.53,1.31-6.62,3.29-8.39c0.98-0.97,2.33-1.57,3.82-1.57c0.05,0,0.11,0,0.16,0c0.01,0,0.01,0,0.01,0c0.01,0,0.02,0,0.02,0
					c0.05,0,0.09,0,0.14,0.01c0.01,0,0.02,0,0.03,0c0.03,0,0.06,0,0.09,0.01c0.25,0.02,0.5,0.06,0.75,0.11c0.01,0,0.02,0,0.03,0
					C30.3,1,30.51,1.05,30.64,1.1c0.03,0.01,0.07,0.02,0.1,0.04c0.84,0.28,1.59,0.76,2.19,1.38c1.92,1.78,3.19,4.83,3.19,8.3
					c0,3.52-1.31,6.62-3.28,8.39c-0.97,0.96-2.31,1.56-3.78,1.57c-0.01,0-0.01,0-0.01,0c0.41,0.15,0.83,0.28,1.26,0.4
					C31.06,21.1,34.66,20.52,37.6,15.32z"/>
				<g>
					
						<linearGradient id="SVGID_00000023273605536069190580000007049174269429123730_" gradientUnits="userSpaceOnUse" x1="23.4406" y1="24.1105" x2="15.6734" y2="24.1105">
						<stop  offset="0" style="stop-color:#3E1B00"/>
						<stop  offset="0.1068" style="stop-color:#4B2A10"/>
						<stop  offset="0.316" style="stop-color:#6C513A"/>
						<stop  offset="0.6046" style="stop-color:#A18F7E"/>
						<stop  offset="0.7978" style="stop-color:#C8BCAF"/>
					</linearGradient>
					<path style="fill:url(#SVGID_00000023273605536069190580000007049174269429123730_);" d="M23.24,21.27
						c-0.04,0.01-0.08,0.02-0.13,0.03c-6.44,1.24-4.59,4.8-4.05,5.66c0.53-0.35,1.11-0.71,1.72-1.07c-0.27-0.34-0.41-0.75-0.4-1.23
						c0.04-1.36,1.06-2.27,3.05-2.72c0.36-0.08,0.55-0.11,0.97-0.17C23.98,21.59,23.58,21.42,23.24,21.27z"/>
					
						<linearGradient id="SVGID_00000138567890297784241850000013693392729000934845_" gradientUnits="userSpaceOnUse" x1="20.0328" y1="28.4456" x2="20.0328" y2="20.7467">
						<stop  offset="0" style="stop-color:#3E1B00"/>
						<stop  offset="0.1068" style="stop-color:#4B2A10"/>
						<stop  offset="0.316" style="stop-color:#6C513A"/>
						<stop  offset="0.6046" style="stop-color:#A18F7E"/>
						<stop  offset="0.7978" style="stop-color:#C8BCAF"/>
					</linearGradient>
					<path style="fill:url(#SVGID_00000138567890297784241850000013693392729000934845_);" d="M23.11,21.3
						c0.05-0.01,0.09-0.02,0.13-0.03c-0.53-0.24-0.9-0.42-0.95-0.44c-0.2,0.05-0.18,0.07-0.36,0.13c-1.04,0.31-1.87,0.61-2.4,0.9
						c-1.75,1.03-2.66,2.47-2.71,4.33c-0.02,0.74,0.13,1.43,0.41,2.08c0.51-0.39,1.12-0.84,1.83-1.31
						C18.52,26.1,16.67,22.53,23.11,21.3z"/>
				</g>
				
					<linearGradient id="SVGID_00000158733471673675472110000013393659509755168674_" gradientUnits="userSpaceOnUse" x1="52.0669" y1="40.5591" x2="10.4177" y2="20.0586">
					<stop  offset="0" style="stop-color:#3E1B00"/>
					<stop  offset="0.1068" style="stop-color:#4B2A10"/>
					<stop  offset="0.316" style="stop-color:#6C513A"/>
					<stop  offset="0.6046" style="stop-color:#A18F7E"/>
					<stop  offset="0.7978" style="stop-color:#C8BCAF"/>
				</linearGradient>
				<path style="fill:url(#SVGID_00000158733471673675472110000013393659509755168674_);" d="M34.21,26.49c0,0-7.8,1-10.49,2.23
					c-2.69,1.23-8.85,4.05-8.14,11.8c0.7,7.75,9.6,10.44,13.65,10.44c4.05,0,12.15-2.7,12.85-10.45c0.7-7.75-8.5-10.5-8.5-10.5
					l-0.08-0.04c-2.84,0.39-5.48,1.2-7.7,2.38l-0.08,0.04c-0.16,0.09-0.32,0.17-0.47,0.26l-0.01,0.01c-0.18,0.1-0.35,0.2-0.52,0.31
					l-0.02,0.01l-0.01,0c-0.08,0.05-0.15,0.1-0.23,0.15c1.37-0.57,2.91-0.89,4.55-0.89c0.23,0,0.46,0.01,0.68,0.02
					c0,0,1.37,0.14,1.79,0.23c4.35,0.89,7.57,4.09,7.57,7.91c0,4.03-3.61,7.38-8.35,8.03c-0.55,0.08-1.11,0.12-1.69,0.12
					c-0.58,0-1.15-0.04-1.71-0.12c-1.18-0.17-2.29-0.5-3.29-0.97c-2.83-1.32-4.8-3.74-5.02-6.54c-0.01-0.17-0.02-0.35-0.02-0.53
					c0-0.57,0.08-1.13,0.21-1.67c0.04-0.16,0.09-0.33,0.14-0.49c0.02-0.06,0.04-0.12,0.06-0.18c0.03-0.1,0.07-0.2,0.11-0.3
					c0.03-0.07,0.06-0.15,0.09-0.22c0.04-0.09,0.07-0.17,0.11-0.26c0.04-0.08,0.08-0.16,0.12-0.24c0.04-0.08,0.07-0.15,0.11-0.23
					c0.05-0.09,0.1-0.17,0.15-0.26c0.04-0.07,0.07-0.13,0.12-0.2c0.06-0.09,0.12-0.18,0.18-0.27c0.04-0.06,0.07-0.12,0.11-0.17
					c0.07-0.1,0.14-0.19,0.21-0.28c0.04-0.05,0.07-0.1,0.11-0.15c0.08-0.1,0.16-0.2,0.24-0.3c0.04-0.04,0.07-0.09,0.11-0.13
					c0.09-0.1,0.18-0.21,0.28-0.31c0.03-0.04,0.06-0.07,0.1-0.11c0.1-0.11,0.21-0.21,0.31-0.31c0.03-0.03,0.06-0.06,0.09-0.09
					c0.12-0.11,0.23-0.22,0.35-0.32c0.03-0.02,0.05-0.05,0.08-0.07c0.13-0.11,0.26-0.22,0.39-0.33c0.02-0.02,0.04-0.04,0.07-0.06
					c0.14-0.11,0.28-0.22,0.42-0.32c0.02-0.02,0.04-0.03,0.06-0.05c0.15-0.11,0.31-0.22,0.46-0.33c0.01-0.01,0.03-0.02,0.04-0.03
					c0.16-0.11,0.32-0.22,0.49-0.32c0.01-0.01,0.02-0.02,0.03-0.02c0.17-0.11,0.35-0.22,0.53-0.32c0.01,0,0.01-0.01,0.02-0.01
					c0.19-0.11,0.38-0.21,0.57-0.32c0,0,0,0,0,0c2.67-1.41,6.01-2.36,9.67-2.65c0.33-0.03,0.67-0.05,1.01-0.06c0,0,0.01,0,0.01,0
					c0.04,0,0.09-0.01,0.13-0.01c0.11,0,0.22-0.01,0.33-0.01c0.02,0,0.03,0,0.04,0c0.02,0,0.03,0,0.04,0
					c5.22,0,9.46-4.76,9.46-10.62c0-1.61-0.32-3.13-0.89-4.5C45.45,22.46,40.03,25.49,34.21,26.49z"/>
				
					<linearGradient id="SVGID_00000034077856500416728920000006709127844393962130_" gradientUnits="userSpaceOnUse" x1="25.5645" y1="54.875" x2="32.7355" y2="21.451">
					<stop  offset="0" style="stop-color:#3E1B00"/>
					<stop  offset="0.1068" style="stop-color:#4B2A10"/>
					<stop  offset="0.316" style="stop-color:#6C513A"/>
					<stop  offset="0.6046" style="stop-color:#A18F7E"/>
					<stop  offset="0.7978" style="stop-color:#C8BCAF"/>
				</linearGradient>
				<path style="fill:url(#SVGID_00000034077856500416728920000006709127844393962130_);" d="M31.31,24.29
					c-0.84,0.08-1.91,0.19-2.29,0.23c0,0-0.01,0-0.01,0c-0.09,0.01-0.15,0.02-0.15,0.02c-0.02,0-0.05,0.01-0.07,0.01
					c-0.03,0-0.06,0.01-0.08,0.01c-0.01,0-0.02,0-0.03,0c-1.08,0.14-2.08,0.31-3,0.5c-0.65,0.14-1.26,0.3-1.85,0.47
					c-0.3,0.09-0.6,0.18-0.89,0.28c-0.65,0.22-1.27,0.46-1.84,0.74c-0.5,0.24-0.98,0.5-1.45,0.78c-0.36,0.22-0.69,0.45-1,0.66
					c-0.02,0.02-0.05,0.03-0.07,0.05c-0.22,0.15-0.4,0.29-0.59,0.43c-0.35,0.27-0.67,0.52-0.9,0.72c0,0,0,0,0,0
					c-0.75,0.69-1.37,1.4-1.88,2.11c-1.77,2.13-2.83,4.7-2.91,7.5c0,0.08,0,0.34,0,0.39c-0.2,7.46,7.06,13.71,16.2,13.96
					c2.74,0.08,5.34-0.4,7.64-1.3c0.49-0.19,0.98-0.41,1.44-0.64c3.22-1.6,5.71-4.07,6.96-7.04c0.54-1.28,0.86-2.65,0.9-4.08
					c0-0.07-0.01-0.13-0.01-0.19c0.04-3.53-1.61-6.77-4.32-9.23l0,0c0,0-0.33-0.34-0.89-0.74c-0.11-0.08-0.22-0.15-0.34-0.23
					c-0.27-0.18-0.58-0.35-0.92-0.5c-0.2,0.07-0.41,0.14-0.62,0.19c-0.15,0.04-0.3,0.08-0.45,0.11c-0.41,0.09-0.82,0.14-1.22,0.17
					c-0.12,0.01-0.24,0.01-0.35,0.01l-0.05,0l-0.05,0h-0.01l-0.02,0c-0.31,0.01-0.63,0.03-0.99,0.06c-0.57,0.04-1.14,0.11-1.69,0.18
					L33.58,30c0,0,9.21,2.76,8.5,10.5c-0.7,7.75-8.8,10.45-12.85,10.45c-4.05,0-12.95-2.7-13.65-10.44
					c-0.7-7.75,5.46-10.57,8.14-11.8c2.69-1.23,10.49-2.23,10.49-2.23c5.82-1,11.24-4.02,11.07-12.61
					c-0.04,0.77-0.19,1.52-0.43,2.24C43.29,20.8,37.82,24.26,31.31,24.29z"/>
				<g>
					
						<linearGradient id="SVGID_00000075140875877429685380000007357455088361229186_" gradientUnits="userSpaceOnUse" x1="35.4583" y1="22.1665" x2="35.4583" y2="4.1339">
						<stop  offset="0" style="stop-color:#3E1B00"/>
						<stop  offset="0.1068" style="stop-color:#4B2A10"/>
						<stop  offset="0.316" style="stop-color:#6C513A"/>
						<stop  offset="0.6046" style="stop-color:#A18F7E"/>
						<stop  offset="0.7978" style="stop-color:#C8BCAF"/>
					</linearGradient>
					<path style="fill:url(#SVGID_00000075140875877429685380000007357455088361229186_);" d="M37.6,15.32
						c-2.95,5.2-6.54,5.78-7.3,5.85c0.41,0.12,0.84,0.22,1.27,0.31c0.6-0.13,1.19-0.29,1.76-0.5c0.22-0.08,0.44-0.17,0.65-0.27
						c0.09-0.04,0.18-0.08,0.27-0.12c0.53-0.24,1.06-0.51,1.57-0.82c3.09-1.9,4.69-4.57,4.78-7.99c0-0.12-0.01-0.24-0.01-0.36
						c0-0.07,0.02-0.14,0.02-0.21c0.01-0.25-0.01-0.49-0.02-0.73c-0.11-2.39-1.04-4.59-2.56-6.35c-0.13-0.15-0.27-0.3-0.41-0.44
						l-1.37,0.45C38.67,7.05,39.71,11.27,37.6,15.32z"/>
					
						<linearGradient id="SVGID_00000164474094114604608370000010449151929479997328_" gradientUnits="userSpaceOnUse" x1="12.7213" y1="21.3729" x2="39.3793" y2="5.0055">
						<stop  offset="0" style="stop-color:#3E1B00"/>
						<stop  offset="0.1068" style="stop-color:#4B2A10"/>
						<stop  offset="0.316" style="stop-color:#6C513A"/>
						<stop  offset="0.6046" style="stop-color:#A18F7E"/>
						<stop  offset="0.7978" style="stop-color:#C8BCAF"/>
					</linearGradient>
					<path style="fill:url(#SVGID_00000164474094114604608370000010449151929479997328_);" d="M42.54,0.46
						c-0.04,0-0.08,0.01-0.12,0.01c-0.27,0.01-0.54,0.04-0.8,0.11c-0.47,0.08-0.92,0.18-1.35,0.35c-0.99,0.38-2.12,1.03-3.38,1.97
						c-0.17-0.12-0.34-0.21-0.51-0.32c-1.47-1.14-3.24-1.96-5.2-2.33c-0.03,0-0.05-0.01-0.08-0.01c-0.57-0.11-1.14-0.18-1.71-0.2
						c-0.06,0-0.12-0.01-0.18-0.01c-0.02,0-0.04,0-0.06,0c-5.76-0.16-10.65,3.57-11.78,8.63c-0.02,0.09-0.04,0.19-0.06,0.28
						c-0.04,0.22-0.08,0.43-0.11,0.66c-0.03,0.26-0.05,0.52-0.06,0.78c0,0.08-0.02,0.15-0.02,0.23c-0.01,0.34,0,0.68,0.03,1.02
						c0.01,0.12,0.03,0.24,0.05,0.35c0,0.01,0,0.02,0,0.03c0.24,2.16,1.17,4.14,2.58,5.75c1.07,1.34,2.31,2.31,3.6,3
						c0,0,1.36,0.74,2.9,1.13c0,0,0.01,0,0,0c0,0,0,0,0,0c0.64,0.16,1.32,0.26,1.93,0.34c3.06,0.41,5.52-0.1,5.52-0.1
						c-0.04,0-0.08,0-0.12,0h0c0,0-9.31,1.36-13.55-6.79c-3.75-7.2,2.58-14.96,8.78-14.96h0.09c2.71,0,5.42,1.48,7.3,3.75
						c0.6-0.53,6.88-5.95,8.13,0.04c0,0,0.07,0.99,0.08,1.98c0.33-0.02,0.62-0.15,0.89-0.31c0.32-0.2,0.61-0.48,0.76-0.84
						c0-0.02,0.01-0.03,0.02-0.05c0.06-0.15,0.08-0.31,0.1-0.47c0.01-0.1,0.03-0.21,0.03-0.31c0-0.05,0.01-0.09,0.01-0.14
						C46.26,2.05,44.6,0.47,42.54,0.46z"/>
					
						<linearGradient id="SVGID_00000179623324097099452650000007997080317282496904_" gradientUnits="userSpaceOnUse" x1="36.1975" y1="4.1296" x2="36.2604" y2="4.1296">
						<stop  offset="0" style="stop-color:#160000"/>
						<stop  offset="0.1546" style="stop-color:#240D06"/>
						<stop  offset="0.4481" style="stop-color:#4A3015"/>
						<stop  offset="0.7978" style="stop-color:#7E612A"/>
					</linearGradient>
					<path style="fill:url(#SVGID_00000179623324097099452650000007997080317282496904_);" d="M36.2,4.15l0.06-0.02
						c-0.01-0.01-0.01-0.01-0.02-0.02C36.21,4.13,36.2,4.15,36.2,4.15z"/>
					
						<linearGradient id="SVGID_00000052075116017187919500000009850789056639731876_" gradientUnits="userSpaceOnUse" x1="40.3488" y1="-1.4536" x2="40.3488" y2="6.0748">
						<stop  offset="0" style="stop-color:#3E1B00"/>
						<stop  offset="0.1068" style="stop-color:#4B2A10"/>
						<stop  offset="0.316" style="stop-color:#6C513A"/>
						<stop  offset="0.6046" style="stop-color:#A18F7E"/>
						<stop  offset="0.7978" style="stop-color:#C8BCAF"/>
					</linearGradient>
					<path style="fill:url(#SVGID_00000052075116017187919500000009850789056639731876_);" d="M36.24,4.11
						c0.01,0.01,0.01,0.01,0.02,0.02l1.37-0.45c0.49-0.41,0.96-0.72,1.42-0.94c0.44-0.22,0.87-0.34,1.28-0.38
						c0.07-0.01,0.24-0.03,0.27-0.03c1.02,0.04,1.84,0.87,1.84,1.9c0,1.06,0.86,1.91,1.91,1.91c0.04,0,0.07,0,0.1,0
						c-0.01-1-0.08-1.98-0.08-1.98C43.12-1.84,36.84,3.58,36.24,4.11z"/>
				</g>
			</g>
		</g>
	</g>
	<g>
		<g>
			<rect x="15.03" y="70.85" class="st17" width="0.6" height="5.45"/>
			<polygon class="st17" points="20.45,75.75 20.45,75.62 20.45,70.85 19.84,70.85 19.84,76.31 22.13,76.31 22.13,75.75 
				20.58,75.75 			"/>
			<polygon class="st17" points="26.38,75.75 26.38,75.62 26.38,70.85 25.78,70.85 25.78,76.31 28.06,76.31 28.06,75.75 
				26.51,75.75 			"/>
			<path class="st17" d="M44.34,74.14l-0.01,0.14c-0.04,0.43-0.25,0.81-0.61,1.12c-0.36,0.31-0.77,0.46-1.23,0.46
				c-0.53,0-1.03-0.2-1.48-0.61c-0.48-0.44-0.73-1-0.73-1.67c0-0.65,0.22-1.2,0.65-1.63c0.43-0.44,0.97-0.66,1.61-0.66
				c0.67,0,1.25,0.29,1.73,0.87l0.42-0.4c-0.32-0.35-0.64-0.61-0.97-0.77c-0.36-0.17-0.77-0.26-1.19-0.26
				c-0.79,0-1.47,0.28-2.02,0.83c-0.55,0.55-0.83,1.23-0.83,2.02c0,0.77,0.28,1.45,0.82,2c0.54,0.55,1.2,0.83,1.96,0.83
				c0.79,0,1.42-0.28,1.93-0.85c0.22-0.25,0.38-0.52,0.47-0.81c0.09-0.32,0.14-0.69,0.14-1.1v-0.06h-2.1l0.22,0.55h1.07H44.34z"/>
			<polygon class="st17" points="49.52,71.53 49.52,71.4 49.65,71.4 51.81,71.4 51.81,70.85 48.92,70.85 48.92,76.31 51.81,76.31 
				51.81,75.75 49.65,75.75 49.52,75.75 49.52,75.62 49.52,73.71 49.52,73.59 49.65,73.59 51.75,73.59 51.75,73.03 49.65,73.03 
				49.52,73.03 49.52,72.9 			"/>
			<path class="st17" d="M7.4,70.85H6.74l2.31,5.67l0.3-0.72l-0.92-2.37L7.4,70.85z M10.76,70.85l-1.44,3.58l0.3,0.76l1.81-4.34
				H10.76z"/>
			<path class="st17" d="M35.74,76.32h0.66l-2.31-5.67l-0.3,0.72l0.92,2.37L35.74,76.32z M32.38,76.32l1.44-3.58l-0.3-0.76
				l-1.81,4.34H32.38z"/>
		</g>
		<g>
			<path class="st17" d="M9.37,66.33h0.91l0.86-1.87l0.05-0.11h0.12h3.5h0.13l0.05,0.11l0.81,1.87h0.93l-3.61-8.04L9.37,66.33z
				 M14.49,63.29l0.12,0.27h-0.29h-2.48h-0.3l0.12-0.27l1.27-2.78l0.18-0.39l0.17,0.39L14.49,63.29z"/>
			<polygon class="st17" points="20.69,61.99 20.52,61.7 18.71,58.53 17.73,58.53 20.23,62.89 20.26,62.93 20.26,62.98 20.26,66.33 
				21.11,66.33 21.11,62.98 21.11,62.93 21.13,62.89 23.65,58.53 22.67,58.53 20.85,61.7 			"/>
			<path class="st17" d="M28.6,61.83l-0.82-0.33c-0.67-0.27-1.01-0.66-1.01-1.14c0-0.35,0.14-0.64,0.41-0.87
				c0.26-0.22,0.59-0.34,0.98-0.34c0.31,0,0.58,0.07,0.79,0.2c0.16,0.09,0.33,0.27,0.5,0.54l0.67-0.4
				c-0.49-0.75-1.12-1.12-1.94-1.12c-0.66,0-1.19,0.19-1.63,0.58c-0.43,0.38-0.64,0.84-0.64,1.4c0,0.83,0.51,1.45,1.56,1.9
				l0.79,0.33c0.22,0.09,0.4,0.19,0.56,0.29c0.16,0.11,0.3,0.22,0.4,0.35c0.11,0.13,0.19,0.27,0.24,0.43
				c0.05,0.15,0.07,0.32,0.07,0.5c0,0.45-0.15,0.82-0.44,1.11c-0.29,0.29-0.66,0.44-1.09,0.44c-0.55,0-0.98-0.2-1.27-0.61
				c-0.14-0.18-0.24-0.47-0.3-0.88l-0.87,0.19c0.12,0.63,0.38,1.13,0.76,1.49c0.43,0.39,0.96,0.58,1.63,0.58
				c0.7,0,1.27-0.23,1.75-0.69c0.47-0.46,0.69-1.02,0.69-1.73c0-0.51-0.14-0.95-0.42-1.3C29.7,62.4,29.23,62.09,28.6,61.83z"/>
			<path class="st17" d="M37.05,58.38c-1.12,0-2.1,0.4-2.89,1.18c-0.8,0.79-1.21,1.74-1.21,2.83c0,1.25,0.44,2.27,1.32,3.03
				c0.8,0.69,1.71,1.05,2.72,1.05c1.14,0,2.12-0.4,2.92-1.18c0.8-0.78,1.2-1.74,1.2-2.85c0-1.11-0.4-2.07-1.2-2.87
				C39.12,58.78,38.16,58.38,37.05,58.38z M39.31,64.75c-0.62,0.63-1.4,0.95-2.31,0.95c-0.84,0-1.59-0.31-2.22-0.93
				c-0.64-0.62-0.97-1.41-0.97-2.37c0-0.91,0.31-1.69,0.94-2.3c0.62-0.63,1.39-0.95,2.29-0.95c0.9,0,1.67,0.32,2.29,0.95
				c0.62,0.62,0.93,1.41,0.93,2.32C40.25,63.34,39.93,64.12,39.31,64.75z"/>
			<path class="st17" d="M46.38,62.91l0.29-0.06c0.5-0.11,0.9-0.35,1.2-0.73c0.3-0.38,0.46-0.84,0.46-1.37
				c0-0.69-0.24-1.23-0.73-1.64c-0.44-0.37-1.19-0.56-2.22-0.56h-1.25v7.79h0.85v-3.16v-0.19h0.19h0.22h0.1l0.06,0.08l2.28,3.27
				h1.04l-2.31-3.18L46.38,62.91z M45.17,62.29h-0.19V62.1V59.5v-0.19h0.19h0.44c1.57,0,1.9,0.78,1.9,1.44
				c0,0.7-0.34,1.53-1.94,1.53H45.17z"/>
			<polygon class="st17" points="57.7,64.02 57.7,64.5 57.37,64.15 51.74,58.26 51.74,66.33 52.59,66.33 52.59,60.79 52.59,60.32 
				52.92,60.66 58.55,66.54 58.55,58.53 57.7,58.53 			"/>
			<path class="st17" d="M6.64,63.2l-0.02,0.2c-0.06,0.62-0.35,1.16-0.87,1.6c-0.51,0.44-1.1,0.66-1.75,0.66
				c-0.75,0-1.46-0.29-2.1-0.86c-0.69-0.62-1.03-1.42-1.03-2.38c0-0.93,0.31-1.71,0.93-2.32c0.61-0.63,1.39-0.94,2.3-0.94
				c0.96,0,1.78,0.42,2.46,1.24l0.6-0.57c-0.45-0.5-0.92-0.86-1.38-1.09c-0.52-0.25-1.09-0.37-1.7-0.37c-1.13,0-2.1,0.4-2.88,1.19
				C0.4,60.32,0,61.29,0,62.41c0,1.1,0.39,2.06,1.17,2.84c0.77,0.78,1.71,1.18,2.79,1.18c1.12,0,2.02-0.4,2.74-1.21
				c0.32-0.36,0.54-0.75,0.68-1.16c0.14-0.45,0.21-0.98,0.21-1.57v-0.08h-3l0.31,0.79h1.53H6.64z"/>
		</g>
	</g>
</g>
</svg>
